<?xml version="1.0" standalone="no"?><!DOCTYPE svg PUBLIC "-//W3C//DTD SVG 1.1//EN" "http://www.w3.org/Graphics/SVG/1.1/DTD/svg11.dtd"><svg t="1708087691364" class="icon" viewBox="0 0 1024 1024" version="1.1" xmlns="http://www.w3.org/2000/svg" p-id="7588" xmlns:xlink="http://www.w3.org/1999/xlink" width="200" height="200"><path d="M833.6 585.6c0 174.5-136.3 316-304.4 316s-312.6-141.5-312.6-316 144.5-316 312.6-316 304.4 141.5 304.4 316z" fill="#ED6021" p-id="7589"></path><path d="M775 562.4c0 161.7-123.4 292.8-275.5 292.8S216.6 724.1 216.6 562.4s130.7-292.8 282.9-292.8S775 400.7 775 562.4z" fill="#FF8040" p-id="7590"></path><path d="M807 247s-60.2 59.7-134.5 59.7S538 247 538 247s60.2-59.8 134.5-59.8S807 247 807 247z" fill="#52BF2E" p-id="7591"></path><path d="M544.8 754.5m-20 0a20 20 0 1 0 40 0 20 20 0 1 0-40 0Z" fill="#FF7336" p-id="7592"></path><path d="M632.8 694.5m-20 0a20 20 0 1 0 40 0 20 20 0 1 0-40 0Z" fill="#FF7336" p-id="7593"></path><path d="M652.8 774.5m-20 0a20 20 0 1 0 40 0 20 20 0 1 0-40 0Z" fill="#FF7336" p-id="7594"></path><path d="M697.8 714.5m-20 0a20 20 0 1 0 40 0 20 20 0 1 0-40 0Z" fill="#FF7336" p-id="7595"></path><path d="M677.8 585.5m-20 0a20 20 0 1 0 40 0 20 20 0 1 0-40 0Z" fill="#FF7336" p-id="7596"></path><path d="M718.8 654.5m-20 0a20 20 0 1 0 40 0 20 20 0 1 0-40 0Z" fill="#FF7336" p-id="7597"></path></svg>